<?xml version="1.0" standalone="no"?>
<!DOCTYPE svg PUBLIC "-//W3C//DTD SVG 20010904//EN"
 "http://www.w3.org/TR/2001/REC-SVG-20010904/DTD/svg10.dtd">
<svg version="1.0" xmlns="http://www.w3.org/2000/svg"
 width="200.000000pt" height="200.000000pt" viewBox="0 0 200.000000 200.000000"
 preserveAspectRatio="xMidYMid meet">
<metadata>
Created by potrace 1.14, written by Peter Selinger 2001-2017
</metadata>
<g transform="translate(0.000000,200.000000) scale(0.100000,-0.100000)"
fill="#000000" stroke="none">
<path d="M0 1000 l0 -1000 1000 0 1000 0 0 1000 0 1000 -1000 0 -1000 0 0
-1000z m704 650 c13 -10 17 -11 12 -2 -10 16 13 37 40 37 41 -1 75 -46 88
-117 8 -42 33 -58 38 -25 4 21 5 20 18 -6 12 -25 16 -27 25 -13 10 14 14 12
25 -12 l13 -27 11 32 c18 50 23 48 36 -13 11 -53 10 -96 -4 -134 -3 -9 7 -24
25 -38 l29 -24 0 31 c0 16 -4 41 -10 55 -8 21 -6 26 6 26 22 0 47 -67 41 -112
-3 -23 -1 -38 5 -38 11 0 6 103 -7 133 -13 30 14 19 36 -15 l21 -33 -5 28 c-7
42 11 42 22 0 15 -54 13 -118 -4 -160 -15 -36 -15 -38 11 -62 l26 -26 -6 50
c-6 46 -5 49 9 30 8 -11 13 -26 10 -33 -3 -8 -5 -30 -5 -50 0 -26 -3 -33 -9
-23 -7 11 -11 6 -14 -20 -3 -29 -4 -27 -5 13 -3 64 -19 70 -24 7 -2 -30 2 -54
8 -57 6 -4 13 -14 16 -22 5 -12 7 -11 14 5 4 11 14 25 22 31 11 8 13 23 9 60
l-6 49 14 -50 c7 -27 14 -44 14 -37 1 6 8 12 16 12 20 0 20 71 0 110 -22 43
-25 37 -9 -17 8 -25 14 -56 13 -67 0 -12 -8 8 -18 44 -10 36 -22 73 -26 84 -6
14 -5 18 6 14 23 -8 59 -80 59 -120 0 -21 5 -38 10 -38 21 0 9 69 -25 139 -20
41 -34 75 -32 77 12 13 97 -113 97 -143 0 -7 5 -13 11 -13 8 0 10 21 7 68 -3
38 -2 58 3 47 4 -11 7 -58 7 -105 0 -52 -3 -73 -7 -55 -5 23 -8 26 -13 13 -4
-10 -34 -31 -67 -48 -33 -16 -66 -40 -72 -52 -17 -33 -17 -33 -44 -4 -13 14
-38 29 -55 32 -16 4 -30 10 -30 15 0 5 -8 9 -17 9 -12 0 -14 3 -6 8 7 4 9 13
4 21 -5 7 -14 10 -20 7 -6 -4 -9 -12 -6 -17 4 -5 2 -9 -4 -9 -5 0 -12 4 -16 9
-3 6 -14 9 -25 8 -17 -1 -18 -12 -1 -12 4 0 23 -9 43 -19 l35 -19 -49 -34
c-55 -36 -58 -38 -58 -23 0 6 8 10 18 11 12 0 13 2 3 6 -8 3 -9 8 -3 12 12 8
-84 94 -100 89 -6 -2 5 -20 25 -41 21 -20 29 -33 20 -30 -16 6 -17 5 -3 -13 8
-10 0 -6 -18 10 -17 16 -29 32 -27 36 2 3 -6 23 -18 44 -16 27 -33 42 -61 52
-22 7 -49 23 -60 35 l-21 22 27 -16 c70 -43 35 0 -42 53 -30 21 -89 73 -130
117 -41 44 -88 89 -105 100 -16 12 -26 25 -22 30 5 4 62 8 127 8 65 0 116 3
113 7 -10 17 12 6 44 -23 19 -16 37 -28 39 -26 8 8 -9 38 -27 48 -33 17 -99
109 -99 137 l0 25 23 -19 c12 -11 31 -26 41 -34z m642 -609 c-25 -47 -35 -45
-12 3 12 23 22 39 24 35 2 -4 -4 -21 -12 -38z m-485 -18 c13 -15 12 -15 -8 -4
-24 12 -29 21 -14 21 5 0 15 -7 22 -17z m81 -30 c-6 -2 -9 -9 -6 -15 4 -6 -2
-5 -15 1 -28 16 -26 21 7 20 15 0 21 -3 14 -6z m118 -18 c-14 -8 -32 -14 -40
-14 -8 0 -1 6 15 14 40 18 57 18 25 0z m140 -15 c0 -5 3 -15 6 -24 5 -13 -1
-16 -32 -14 -39 1 -39 1 -5 5 l33 4 -22 24 c-22 24 -22 24 -1 18 11 -3 21 -9
21 -13z m83 0 c-3 -12 -8 -18 -11 -15 -3 2 -12 -1 -21 -7 -9 -7 -5 0 8 15 29
32 31 33 24 7z m-205 -22 c-10 -7 -8 -13 11 -28 13 -11 31 -20 40 -20 13 0 13
-2 2 -9 -11 -7 -9 -10 8 -16 13 -4 20 -9 17 -12 -9 -9 -62 29 -84 61 -27 40
-27 46 -1 39 16 -5 18 -8 7 -15z m209 -55 c-3 -10 -5 -2 -5 17 0 19 2 27 5 18
2 -10 2 -26 0 -35z m-58 -3 c11 -24 11 -24 -3 -6 -9 11 -16 24 -16 30 0 12 5
7 19 -24z m-52 -6 c-3 -3 -12 -4 -19 -1 -8 3 -5 6 6 6 11 1 17 -2 13 -5z m123
-38 c0 -6 11 -22 25 -36 23 -24 24 -28 10 -40 -14 -11 -19 -10 -38 10 l-22 24
22 -18 c39 -32 48 -7 11 33 -19 20 -41 45 -49 56 -14 19 -14 19 13 0 15 -11
28 -24 28 -29z m-103 8 c-3 -3 -12 -4 -19 -1 -8 3 -5 6 6 6 11 1 17 -2 13 -5z
m-760 -260 c13 -17 9 -34 -8 -34 -5 0 -9 7 -9 15 0 23 -35 37 -64 25 -41 -15
-28 -58 25 -85 16 -9 39 -25 50 -36 23 -23 25 -72 4 -89 -21 -18 -98 -18 -118
-1 -18 15 -23 51 -7 51 6 0 10 -6 10 -14 0 -36 68 -52 98 -23 23 23 6 51 -53
90 -40 26 -51 38 -53 64 -2 23 3 35 20 48 28 20 87 14 105 -11z m238 -4 c-5
-8 -11 -8 -17 -2 -6 6 -7 16 -3 22 5 8 11 8 17 2 6 -6 7 -16 3 -22z m707 -25
c-3 -36 -1 -55 7 -55 7 0 8 -8 0 -27 -7 -20 -7 -29 1 -31 8 -3 8 -8 -1 -18 -6
-8 -9 -23 -6 -34 3 -13 0 -20 -9 -20 -11 0 -14 24 -14 120 0 93 3 120 13 120
10 0 13 -14 9 -55z m-540 -62 l3 -108 48 3 c28 2 47 -1 47 -7 0 -7 -25 -11
-60 -11 l-60 0 0 115 c0 147 18 153 22 8z m-322 36 c0 -8 4 -8 14 0 23 20 70
10 74 -15 2 -13 -4 -24 -13 -28 -9 -3 -15 -1 -14 7 3 26 -2 37 -16 37 -23 0
-35 -34 -35 -99 0 -48 -3 -61 -15 -61 -12 0 -15 15 -15 75 0 43 -4 75 -10 75
-5 0 -10 5 -10 10 0 6 9 10 20 10 11 0 20 -5 20 -11z m158 -74 c-4 -111 -22
-111 -26 0 -2 72 0 85 13 85 13 0 15 -13 13 -85z m402 75 c10 -6 17 -32 20
-77 3 -47 9 -67 18 -65 6 1 12 -2 12 -8 0 -20 -42 -10 -47 11 -6 20 -6 20 -27
1 -28 -26 -47 -31 -68 -20 -22 11 -23 51 -3 68 8 6 32 14 55 17 33 5 40 9 40
28 0 47 -72 63 -78 18 -2 -13 -8 -23 -13 -23 -16 0 -22 29 -9 45 14 17 77 20
100 5z m108 -6 c8 -14 10 -14 21 0 16 19 64 21 79 4 16 -20 20 -158 5 -158 -9
0 -13 20 -13 69 0 72 -12 96 -47 89 -27 -5 -44 -48 -41 -106 2 -36 -1 -52 -9
-52 -9 0 -13 22 -13 75 0 43 -4 75 -10 75 -5 0 -10 5 -10 10 0 16 28 12 38 -6z
m300 -12 c2 -14 -5 -33 -17 -46 l-21 -22 26 -37 c19 -29 21 -37 9 -37 -8 0
-23 16 -32 35 -9 19 -24 35 -32 35 -9 0 -1 9 17 20 35 21 43 56 16 67 -9 3
-26 0 -38 -7 -19 -12 -20 -12 -7 4 22 26 75 18 79 -12z m95 21 c-7 -2 -13 -16
-13 -29 0 -13 -4 -24 -10 -24 -5 0 -10 11 -10 24 0 23 12 34 35 34 6 0 4 -2
-2 -5z m71 -9 c11 -10 16 -34 16 -74 0 -46 4 -61 18 -69 15 -9 15 -10 -5 -11
-13 0 -24 8 -28 21 l-7 21 -23 -22 c-33 -31 -79 -24 -83 12 -3 21 3 30 27 42
16 9 36 16 43 15 7 0 1 -5 -14 -10 -42 -16 -50 -69 -11 -69 9 0 27 10 40 22
28 26 32 97 7 122 -8 9 -11 16 -5 16 5 0 17 -7 25 -16z m-1040 -230 c12 -4 16
-20 16 -56 0 -30 -4 -47 -10 -43 -5 3 -10 26 -10 50 0 25 -5 45 -12 48 -7 3
-10 6 -6 6 3 1 13 -2 22 -5z m164 -58 c2 -16 0 -32 -5 -37 -4 -4 -8 6 -8 24 0
23 -5 33 -19 35 -16 3 -18 -1 -14 -31 2 -20 0 -33 -4 -31 -10 6 -11 58 -1 68
17 17 48 0 51 -28z m84 -6 c2 -22 0 -40 -4 -40 -5 0 -8 18 -8 40 0 22 2 40 4
40 2 0 6 -18 8 -40z m50 1 c3 -33 0 -39 -14 -38 -12 1 -14 5 -8 11 6 6 10 23
10 38 0 41 7 34 12 -11z m80 -5 c-6 -48 -12 -46 -12 5 0 22 4 38 8 35 4 -3 6
-21 4 -40z m405 -18 c-2 -13 -4 -5 -4 17 -1 22 1 32 4 23 2 -10 2 -28 0 -40z
m-300 0 c-3 -7 -5 -2 -5 12 0 14 2 19 5 13 2 -7 2 -19 0 -25z m114 22 c10 -6
19 -16 19 -23 0 -8 -3 -9 -8 -1 -4 6 -16 16 -27 22 -25 14 -11 16 16 2z"/>
<path d="M670 1638 c15 -28 71 -88 82 -88 31 0 -23 74 -74 101 -18 10 -19 9
-8 -13z"/>
<path d="M787 1614 c-15 -88 -5 -134 33 -154 18 -10 19 -7 14 42 -9 89 -14
114 -28 133 -12 16 -13 14 -19 -21z"/>
<path d="M495 1523 c-13 -4 1 -11 45 -23 36 -9 67 -15 69 -13 2 1 -4 12 -14
23 -18 20 -55 24 -100 13z"/>
<path d="M621 1497 c6 -12 19 -23 30 -23 22 0 22 1 9 27 -6 10 -19 19 -30 19
-17 0 -18 -3 -9 -23z"/>
<path d="M844 1495 c4 -16 14 -37 22 -45 13 -13 13 -11 3 20 -16 47 -34 65
-25 25z"/>
<path d="M670 1506 c0 -2 11 -11 25 -20 25 -17 25 -16 13 4 -11 17 -38 29 -38
16z"/>
<path d="M980 1500 c0 -6 -20 -41 -45 -77 -49 -71 -50 -89 -12 -130 27 -30 45
-30 40 2 -3 14 3 38 16 58 15 25 21 51 21 96 0 34 -4 61 -10 61 -5 0 -10 -5
-10 -10z"/>
<path d="M509 1481 c14 -13 37 -21 58 -21 43 0 35 16 -13 24 -19 4 -43 10 -52
12 -11 4 -9 -1 7 -15z"/>
<path d="M740 1475 c13 -14 26 -25 28 -25 3 0 -5 11 -18 25 -13 14 -26 25 -28
25 -3 0 5 -11 18 -25z"/>
<path d="M901 1490 c0 -8 4 -24 9 -35 5 -13 9 -14 9 -5 0 8 -4 24 -9 35 -5 13
-9 14 -9 5z"/>
<path d="M886 1455 c4 -16 11 -34 16 -40 7 -7 8 -1 3 15 -12 40 -26 59 -19 25z"/>
<path d="M587 1446 c-29 -9 -35 -14 -25 -24 15 -15 48 -15 85 -1 27 10 27 11
9 25 -11 8 -22 14 -25 13 -3 -1 -23 -6 -44 -13z"/>
<path d="M680 1440 c0 -37 195 -85 208 -52 3 9 -5 23 -19 34 -19 16 -33 19
-74 14 -27 -4 -65 -2 -82 3 -18 5 -33 6 -33 1z"/>
<path d="M632 1406 c-33 -9 -40 -14 -30 -24 13 -13 59 -16 96 -6 22 6 22 8 6
25 -9 11 -20 18 -23 18 -3 -1 -25 -7 -49 -13z"/>
<path d="M687 1362 c-38 -14 -45 -20 -35 -30 23 -23 128 -12 128 14 0 22 14
17 46 -17 16 -17 42 -37 57 -46 16 -8 26 -17 23 -20 -3 -3 -20 4 -39 16 -19
11 -36 18 -39 16 -3 -3 -11 1 -18 10 -7 8 -21 15 -32 15 -28 0 -11 -19 44 -50
31 -17 39 -19 29 -7 -17 21 -3 22 20 1 11 -10 26 -13 38 -9 19 6 19 7 -5 42
-13 20 -24 42 -24 50 0 9 -6 13 -12 10 -7 -3 -22 -8 -33 -12 -20 -7 -20 -6 -1
9 19 15 17 16 -26 16 -26 0 -52 2 -60 4 -7 3 -35 -3 -61 -12z"/>
<path d="M1071 1338 c-1 -27 4 -48 9 -48 12 0 12 47 0 75 -6 15 -9 8 -9 -27z"/>
<path d="M1123 1335 c0 -22 2 -30 4 -17 2 12 2 30 0 40 -3 9 -5 -1 -4 -23z"/>
<path d="M980 1335 c-15 -18 -4 -65 18 -73 13 -4 16 40 3 71 -6 18 -8 18 -21
2z"/>
<path d="M1146 1314 c-4 -15 -27 -46 -52 -70 -24 -24 -44 -51 -44 -60 0 -33
41 -105 59 -102 9 1 22 -1 29 -5 9 -6 12 6 12 50 -1 53 -2 56 -15 39 -8 -11
-16 -31 -16 -45 -2 -24 -2 -25 -6 -3 -3 13 7 41 22 68 28 47 47 154 27 154 -5
0 -13 -12 -16 -26z"/>
<path d="M1020 1281 c0 -23 5 -41 10 -41 6 0 10 15 10 34 0 19 -4 38 -10 41
-6 4 -10 -10 -10 -34z"/>
<path d="M709 1292 c12 -9 43 -34 67 -55 24 -22 48 -36 54 -32 8 5 -1 18 -24
36 -19 16 -38 38 -41 49 -5 15 -15 20 -43 20 l-37 -1 24 -17z"/>
<path d="M1050 1255 c0 -34 1 -34 20 -18 18 16 18 18 3 35 -22 24 -23 23 -23
-17z"/>
<path d="M1300 1220 c11 -28 20 -60 20 -70 0 -11 5 -20 10 -20 17 0 11 32 -15
88 -31 66 -41 68 -15 2z"/>
<path d="M829 1240 c13 -11 27 -20 32 -20 18 0 8 10 -23 25 l-33 16 24 -21z"/>
<path d="M888 1225 c-20 -14 -42 -25 -47 -25 -6 0 -11 -5 -11 -11 0 -16 208
-8 214 8 8 19 -48 53 -86 53 -19 0 -49 -11 -70 -25z"/>
<path d="M911 1171 c-52 -5 -62 -8 -50 -18 8 -7 24 -12 34 -12 11 0 32 -3 48
-7 23 -5 26 -4 20 12 -6 17 -5 17 17 1 42 -29 87 -15 60 18 -13 15 -19 16
-129 6z"/>
<path d="M930 1111 c0 -15 80 -72 91 -65 17 10 8 21 -41 48 -27 15 -50 22 -50
17z"/>
<path d="M1005 434 c-20 -20 -16 -48 7 -52 18 -3 68 39 68 58 0 16 -57 12 -75
-6z"/>
</g>
</svg>
